<svg xmlns="http://www.w3.org/2000/svg" viewBox="0 0 410 404"><defs><linearGradient id="a" x1=".13" x2="1" y1=".12" y2="1"><stop stop-color="#41d1ff"/><stop offset="1" stop-color="#bd34fe"/></linearGradient><linearGradient id="b" x1=".11" x2=".89" y1=".11" y2=".89"><stop stop-color="#ffea83"/><stop offset=".08" stop-color="#ffdd35"/><stop offset="1" stop-color="#ffa800"/></linearGradient></defs><path fill="url(#a)" d="M399.6 59.6 215.4 388c-3.8 6.7-13.5 6.7-17.3 0L10.3 59.6c-4.2-7.3 2.1-16.3 10.4-14.9l183.8 31.3a10 10 0 0 0 3.4 0l181.3-31.1c8.3-1.4 14.6 7.6 10.4 14.9Z"/><path fill="url(#b)" d="M292.5 1.5 156.2 26.4a5 5 0 0 0-4 4.2l-12.7 86.8a5 5 0 0 0 6.2 5.5l36.1-8.2a5 5 0 0 1 6.1 5.7l-10.7 52.5a5 5 0 0 0 6.8 5.6l22.3-8.5a5 5 0 0 1 6.5 5.7l-17 83.6c-1.6 7.7 9 11.5 12.9 5l1.2-2L329 73.8c2.9-5-1.6-11-7.3-9.7l-37 8.3a5 5 0 0 1-6-5.8l23.8-58c1.9-4.5-1.7-9.3-6.7-8.3Z"/></svg>